<?xml version="1.0"?>
<svg xmlns="http://www.w3.org/2000/svg" viewBox="0 0 32 32">
    <path d="M 6 7.03125 C 5.693 7.03125 5.403 7.0907812 5.125 7.1757812 L 8.0390625 9.03125 L 23.960938 9.03125 L 26.875 7.1757812 C 26.597 7.0907813 26.307 7.03125 26 7.03125 L 6 7.03125 z M 4.1132812 7.71875 C 3.4392812 8.26975 3 9.09625 3 10.03125 L 3 23.03125 C 3 24.68525 4.346 26.03125 6 26.03125 L 26 26.03125 C 27.654 26.03125 29 24.68525 29 23.03125 L 29 10.03125 C 29 9.09625 28.560719 8.26975 27.886719 7.71875 L 16 15.283203 L 4.1132812 7.71875 z M 6 12.445312 L 16 18.810547 L 26 12.445312 L 26 24.03125 L 6 24.03125 L 6 12.445312 z"/>
</svg>
